Coordinates
version=1
nRows=21
nColumns=19
inDegrees=yes

Units are S.I. units (second, meters, Newtons, ...)
If the header above contains a line with 'inDegrees', this indicates whether rotational values are in degrees (yes) or radians (no).

endheader
time	pelvis_tilt	pelvis_list	pelvis_rotation	pelvis_tx	pelvis_ty	pelvis_tz	hip_flexion_r	hip_adduction_r	hip_rotation_r	knee_angle_r	knee_angle_r_beta	ankle_angle_r	hip_flexion_l	hip_adduction_l	hip_rotation_l	knee_angle_l	knee_angle_l_beta	ankle_angle_l
     11.06000000	      1.15086954	    -10.42426277	     -3.39762270	      2.20764394	      1.01936426	      1.04965626	     28.35656888	     11.66885414	     -7.15294956	     32.18086044	      0.56166197	      2.01232713	    -12.51859318	     -9.95866258	     -2.14971871	     72.63788210	      1.26777020	    -14.95578088
     11.06666667	      1.69615308	    -10.78369155	     -3.45482396	      2.20804665	      1.01380133	      1.04988770	     27.30141576	     11.97088622	     -6.99748869	     33.79311894	      0.58980119	      3.25864328	    -11.86822785	    -10.60864091	     -2.31906401	     75.43625220	      1.31661098	    -14.22586580
     11.07333333	      1.41326157	    -11.08687957	     -3.46839535	      2.20793671	      1.00703292	      1.05009577	     27.33209385	     12.20502049	     -7.01920489	     35.73963149	      0.62377424	      4.69885262	    -10.05903522	    -11.29934810	     -2.15454421	     78.50369801	      1.37014801	    -13.28752566
     11.08000000	      1.71928160	    -11.52208838	     -3.58459267	      2.20758516	      1.00097804	      1.05042413	     26.75042186	     12.69427572	     -6.84260019	     37.82491005	      0.66016922	      6.56113809	     -8.96786036	    -12.13681542	     -2.28293712	     81.32017164	      1.41930474	    -12.44124514
     11.08666667	      0.81932823	    -11.83919242	     -3.76183944	      2.20674739	      0.99347991	      1.05089462	     27.64137114	     13.10663669	     -6.77637399	     40.20303844	      0.70167539	      8.48597180	     -6.25907088	    -12.99748915	     -2.07131671	     84.42187936	      1.47343976	    -11.67303513
     11.09333333	      0.43194507	    -12.42352115	     -3.98922942	      2.20577559	      0.98677699	      1.05140471	     27.90839379	     13.86157157	     -6.67702246	     42.51848968	      0.74208764	     10.59720258	     -4.16325869	    -14.17498313	     -2.03312941	     87.28519575	      1.52341405	    -11.07431998
     11.10000000	     -0.04384780	    -12.98151383	     -4.24861208	      2.20449246	      0.98022201	      1.05193801	     28.25955839	     14.63253905	     -6.55143824	     44.85140933	      0.78280477	     12.77852107	     -1.85098324	    -15.33562935	     -1.86985147	     90.06611077	      1.57195018	    -10.62917330
     11.10666667	     -0.42213923	    -13.59144477	     -4.57711478	      2.20303961	      0.97414742	      1.05247838	     28.39514595	     15.49603214	     -6.37835233	     47.04829308	      0.82114762	     14.94084968	      0.40235840	    -16.52961257	     -1.66701421	     92.67673172	      1.61751411	    -10.31476845
     11.11333333	     -0.92073142	    -14.11932517	     -4.95304152	      2.20134111	      0.96843892	      1.05302991	     28.52821962	     16.32258368	     -6.07881955	     49.04386555	      0.85597693	     17.00691123	      2.91050803	    -17.61568830	     -1.31971086	     95.14923101	      1.66066736	    -10.16444395
     11.12000000	     -1.32954520	    -14.52442108	     -5.37115559	      2.19946109	      0.96343393	      1.05353335	     28.37742876	     17.04939077	     -5.62411249	     50.77418187	      0.88617665	     18.99295166	      5.40783703	    -18.48835548	     -0.89438855	     97.40141037	      1.69997531	    -10.13036179
     11.12666667	     -1.59097616	    -14.92155083	     -5.86392967	      2.19759359	      0.95926121	      1.05405032	     27.81590745	     17.79902402	     -4.99600387	     52.14465800	      0.91009597	     20.80739044	      7.73838192	    -19.31963458	     -0.50497368	     99.38034132	      1.73451417	    -10.10449775
     11.13333333	     -1.82739763	    -15.10629060	     -6.34791154	      2.19558686	      0.95586749	      1.05449714	     27.00508419	     18.32857514	     -4.18237002	     53.16755461	      0.92794888	     22.49944509	     10.13459990	    -19.82097162	     -0.02813928	    101.10057505	      1.76453791	    -10.08401778
     11.14000000	     -1.94981367	    -15.15378373	     -6.81994680	      2.19364999	      0.95336088	      1.05485654	     25.82388580	     18.68752991	     -3.22456687	     53.81559946	      0.93925940	     24.02454421	     12.42678158	    -20.10957995	      0.43273631	    102.51828040	      1.78928154	     -9.97592434
     11.14666667	     -1.76451074	    -15.05979931	     -7.18870144	      2.19183292	      0.95202664	      1.05503214	     24.06239516	     18.80169958	     -2.18527362	     54.04667522	      0.94329243	     25.43420989	     14.37481110	    -20.13110624	      0.86812094	    103.57533407	      1.80773060	     -9.73115356
     11.15333333	     -1.61909323	    -14.84951994	     -7.51812423	      2.18999525	      0.95140818	      1.05522030	     22.16836223	     18.76737738	     -1.05127129	     53.93858253	      0.94140586	     26.47038330	     16.39710597	    -19.97256655	      1.33105412	    104.35893970	      1.82140710	     -9.31448680
     11.16000000	     -1.64923670	    -14.46647117	     -7.81842590	      2.18841762	      0.95114833	      1.05538685	     20.31449162	     18.45809050	     -0.02793562	     53.54765814	      0.93458294	     27.66276556	     18.59145437	    -19.66933371	      1.70393777	    104.85177310	      1.83000867	     -8.63461630
     11.16666667	     -1.66983077	    -14.01266718	     -8.03749137	      2.18693793	      0.95176153	      1.05552161	     18.30399740	     18.03140616	      1.01375778	     52.80438538	      0.92161038	     28.31591717	     20.75133597	    -19.19044375	      2.11207636	    105.02042729	      1.83295224	     -7.83816137
     11.17333333	     -1.48877141	    -13.34418818	     -7.94145127	      2.18570905	      0.95311696	      1.05527051	     16.04592259	     17.17665513	      1.71844616	     51.85388154	      0.90502096	     28.96664483	     22.69193600	    -18.31317226	      2.57894909	    104.86409681	      1.83022376	     -6.76954927
     11.18000000	     -1.22560264	    -12.70887506	     -7.73255591	      2.18486177	      0.95522848	      1.05491373	     13.57075558	     16.30025891	      2.31590540	     50.58080361	      0.88280156	     29.27914561	     24.42849799	    -17.43952616	      2.99904138	    104.37335781	      1.82165875	     -5.60928039
     11.18666667	     -1.06591252	    -12.03635100	     -7.44825038	      2.18428735	      0.95771675	      1.05452814	     11.15970490	     15.36182332	      2.76945291	     49.12108038	      0.85732458	     29.32973260	     26.18100409	    -16.49431023	      3.39325001	    103.61147663	      1.80836141	     -4.30519682
     11.19333333	     -0.77131757	    -11.33937131	     -7.00432765	      2.18405088	      0.96092786	      1.05398158	      8.54218797	     14.34646310	      3.04217568	     47.43537069	      0.82790340	     29.01454624	     27.67066660	    -15.44704077	      3.76097270	    102.53007407	      1.78948737	     -3.08093673
